<svg id="eOkdJPtuqwG1" xmlns="http://www.w3.org/2000/svg" xmlns:xlink="http://www.w3.org/1999/xlink" viewBox="0 0 300 300" shape-rendering="geometricPrecision" text-rendering="geometricPrecision" project-id="4f7f8a8eb3b24f579b699a8be675e53c" export-id="6c6f9ae33420440aa3d7a3aba5c58064" cached="true"><g transform="matrix(2.372819 0 0 2.038898-217.670467-212.639037)"><path d="M44.92,26.92L21.66,67.22c-1.041244,1.81171-1.038969,4.040804.005971,5.850385s2.97442,2.925812,5.064029,2.929615h46.54c2.097583.003896,4.037275-1.11366,5.085963-2.930285s1.046414-4.055225-.005963-5.869715L55.08,26.92c-1.045448-1.818068-2.98278-2.938836-5.08-2.938836s-4.034552,1.120768-5.08,2.938836Z" transform="matrix(-.999989-.004727 0.004727-.999989 202.696787 222.088767)" fill="#005ceb"/><polygon points="0,-19.43625 5.712171,-7.862128 18.484973,-6.006132 9.242486,3.003066 11.424341,15.724257 0,9.718125 -11.424341,15.724257 -9.242486,3.003066 -18.484973,-6.006132 -5.712171,-7.862128 0,-19.43625" transform="matrix(.603905 0 0 0.663647 152.922893 199.542142)" stroke-width="0"/></g></svg>
